<?xml version="1.0" encoding="UTF-8"?>
<!-- Generator: Adobe Illustrator 28.1.0, SVG Export Plug-In . SVG Version: 6.00 Build 0)  -->
<svg version="1.1" id="Layer_1" xmlns="http://www.w3.org/2000/svg" x="0px" y="0px" viewBox="0 0 505.7 434.1" style="enable-background:new 0 0 505.7 434.1;" xml:space="preserve">
<style type="text/css">
	.st0{fill:url(#SVGID_1_);}
	.st1{fill:#FFFFFF;}
	.st2{fill:url(#SVGID_00000005241232022661568180000005918595138093355401_);}
	.st3{fill:url(#SVGID_00000108278422464545762830000005325291196542673283_);}
	.st4{fill:#FFFFFF;fill-opacity:0;}
</style>
<g>
	<g>
		<g>

				<linearGradient id="SVGID_1_" gradientUnits="userSpaceOnUse" x1="126.425" y1="4997.3438" x2="379.275" y2="4744.4937" gradientTransform="matrix(1 0 0 1 0 -4563.3188)">
				<stop offset="0" style="stop-color:#00139B"/>
				<stop offset="0.242" style="stop-color:#0A26B4;stop-opacity:0.9516"/>
				<stop offset="1" style="stop-color:#2A61FF;stop-opacity:0.8"/>
			</linearGradient>
			<polygon class="st0" points="252.8,434.1 0,307.6 252.8,181.2 505.7,307.6    "/>
		</g>
		<path class="st1" d="M236.4,316.3c22.3,11,49.3,16.1,61.2,11.2l21.6-21.3c-10.2,2.7-29.3-1.3-44.8-9    c-15.5-7.6-23.6-17.1-18.3-22.2l-42.6,10.8C203.8,291.9,214.1,305.3,236.4,316.3z M304.7,282.1c10.5,5.2,23.7,8.2,32.1,6.8    c8.1-7.9,15-14.7,19.4-19c2.9-2.9-1.3-7.1-7-10c-5.8-2.8-14.4-4.9-20.2-3.4l-38.2,9.7C288.1,270.4,294.3,277,304.7,282.1z     M308.3,361.9l-19.6-25.1l-8.3,8.2c-13.3,6.5-46.9,0.2-74.5-13.4c-27.5-13.6-40.2-30.3-27.3-36.9l16.4-4.2l-50.4-9.6    c-14.1-2.7-22.6,1.1-18.8,8.4l26.9,51.9c3.8,7.4,19.1,14.9,33.9,16.8l104.8,13.2C306.2,373.2,313.8,368.9,308.3,361.9z"/>
	</g>
	<g>
		<g>

				<linearGradient id="SVGID_00000019668660533827495280000006681789693802005397_" gradientUnits="userSpaceOnUse" x1="126.425" y1="4906.8438" x2="379.275" y2="4653.9937" gradientTransform="matrix(1 0 0 1 0 -4563.3188)">
				<stop offset="0" style="stop-color:#00139B"/>
				<stop offset="0.242" style="stop-color:#0A26B4;stop-opacity:0.9516"/>
				<stop offset="1" style="stop-color:#2A61FF;stop-opacity:0.8"/>
			</linearGradient>
			<polygon style="fill:url(#SVGID_00000019668660533827495280000006681789693802005397_);" points="252.8,343.5 0,217.1     252.8,90.6 505.7,217.1    "/>
		</g>
		<path class="st1" d="M347.1,243.2l-4.8-2.4c-4.3-2.1-5.4-5.4-2.7-8.1c1.6-1.7,3-3.4,4.3-5.1c2-2.9,7.5-4.8,13.6-4.9h6.6    c11.2,0,20.3-4.6,20.4-10.2v-2.4c0-5.6-9-10-20.2-10h-6.8c-6.1,0-11.5-1.9-13.6-4.7c-1.2-1.7-2.6-3.4-4.3-5.1    c-2.7-2.7-1.5-6,2.8-8.2l4.7-2.4c8-4,8-10.4,0.1-14.3l-3.4-1.7c-7.9-3.9-20.8-3.8-28.7,0.2l-4.8,2.4c-4.3,2.2-10.9,2.8-16.4,1.5    c-3.3-0.8-6.8-1.5-10.2-2c-5.8-1-9.6-3.6-9.6-6.7v-3.3c0-5.6-9-10-20.2-9.9h-4.7c-11.1,0.1-20.1,4.7-20.1,10.2v3.4    c0,3-3.8,5.8-9.5,6.8c-3.4,0.6-6.8,1.4-10.1,2.2c-5.4,1.4-12,0.9-16.2-1.2l-4.6-2.3c-7.8-3.9-20.5-3.8-28.2,0.2l-3.3,1.7    c-7.7,4-7.7,10.3,0.1,14.1l4.7,2.3c4.2,2.1,5.4,5.3,2.8,8.1c-1.6,1.7-2.9,3.4-4.1,5.1c-1.9,2.9-7.3,4.8-13.3,4.8h-6.5    c-10.9,0.1-19.8,4.6-19.7,10.1v2.3c0,5.5,8.9,9.9,19.9,9.8h6.6c6,0,11.3,1.8,13.3,4.7c1.2,1.7,2.6,3.4,4.2,5    c2.6,2.7,1.6,5.9-2.7,8.1l-4.6,2.3c-7.7,3.9-7.7,10.2,0.1,14l3.3,1.6c7.8,3.8,20.3,3.8,28-0.1l4.7-2.4c4.2-2.1,10.7-2.7,16.1-1.4    c3.3,0.8,6.7,1.5,10.1,2.1c5.7,1,9.5,3.6,9.5,6.6v3.2c0,5.5,8.9,9.9,20,9.9h4.7c11,0,20-4.5,20-10v-3.3c0-3,3.8-5.7,9.5-6.7    c3.5-0.6,6.9-1.3,10.2-2.1c5.5-1.3,12-0.8,16.3,1.3l4.6,2.3c7.9,3.9,20.6,3.9,28.5-0.1l3.4-1.7C355,253.4,355,247.1,347.1,243.2z     M217.5,229.5c-19-9.4-19-24.8-0.1-34.4c19-9.6,50-9.8,69.1-0.4c19.1,9.4,19.1,24.9-0.1,34.5C267.3,238.8,236.5,238.9,217.5,229.5    z"/>
	</g>
	<g>

			<linearGradient id="SVGID_00000042010755533470591090000002817151114287150235_" gradientUnits="userSpaceOnUse" x1="126.4249" y1="4816.2437" x2="379.2751" y2="4563.3936" gradientTransform="matrix(1 0 0 1 0 -4563.3188)">
			<stop offset="0" style="stop-color:#00139B"/>
			<stop offset="0.242" style="stop-color:#0A26B4;stop-opacity:0.9516"/>
			<stop offset="1" style="stop-color:#2A61FF;stop-opacity:0.8"/>
		</linearGradient>
		<polygon style="fill:url(#SVGID_00000042010755533470591090000002817151114287150235_);" points="252.8,252.9 0,126.5 252.8,0    505.7,126.5   "/>
	</g>
</g>
	<g>
	<path class="st1" d="M334.5,81.9C288,58.6,217.1,56.3,176.4,76.6c-40.7,20.4-35.9,55.8,10.6,79.1c8.7,4.3,18.6,8.1,29.3,11.1   l10.6,23.8c0.9,2,4.8,3.3,8.9,2.8c1.4-0.2,2.7-0.5,3.7-1l35.5-17.7c26.1,0.3,51.3-4.7,70-13.9C385.8,140.6,381,105.2,334.5,81.9z    M302.9,139.9c-2.9,1.5-7.6,1.5-10.5,0L218.5,103c-2.9-1.5-2.9-3.8,0-5.3c2.9-1.5,7.6-1.5,10.5,0l73.8,36.9   C305.8,136.1,305.8,138.5,302.9,139.9z M259.4,144.5c-2.9,1.5-7.6,1.5-10.5,0l-39.5-19.8c-2.9-1.5-2.9-3.8,0-5.3   c2.9-1.5,7.6-1.5,10.5,0l39.5,19.8C262.3,140.7,262.3,143.1,259.4,144.5z M246.4,85.3c2.9-1.5,7.6-1.5,10.5,0l70.9,35.4   c2.9,1.5,2.9,3.8,0,5.3c-2.9,1.5-7.6,1.5-10.5,0l-70.9-35.4C243.5,89.1,243.5,86.7,246.4,85.3z"/>
		<polygon class="st4" points="252.8,27.8 442.6,122.8 252.8,217.6 63.1,122.8  "/>
</g>
</svg>